<svg width="100" height="100" viewBox="0 0 100 100" fill="none" xmlns="http://www.w3.org/2000/svg">
<path d="M75.0001 58.3334V45.8334H62.5001V37.5H75.0001V25H83.3334V37.5H95.8334V45.8334H83.3334V58.3334H75.0001ZM37.5001 50C32.9167 50 28.9931 48.3681 25.7292 45.1042C22.4654 41.8403 20.8334 37.9167 20.8334 33.3334C20.8334 28.75 22.4654 24.8264 25.7292 21.5625C28.9931 18.2986 32.9167 16.6667 37.5001 16.6667C42.0834 16.6667 46.007 18.2986 49.2709 21.5625C52.5348 24.8264 54.1667 28.75 54.1667 33.3334C54.1667 37.9167 52.5348 41.8403 49.2709 45.1042C46.007 48.3681 42.0834 50 37.5001 50ZM4.16675 83.3334V71.6667C4.16675 69.3056 4.77508 67.1347 5.99175 65.1542C7.20841 63.1736 8.8223 61.6639 10.8334 60.625C15.139 58.4722 19.514 56.857 23.9584 55.7792C28.4029 54.7014 32.9167 54.1639 37.5001 54.1667C42.0834 54.1667 46.5973 54.7056 51.0417 55.7834C55.4862 56.8611 59.8612 58.475 64.1667 60.625C66.1806 61.6667 67.7959 63.1778 69.0126 65.1583C70.2292 67.1389 70.8362 69.3084 70.8334 71.6667V83.3334H4.16675ZM12.5001 75H62.5001V71.6667C62.5001 70.9028 62.3084 70.2084 61.9251 69.5834C61.5417 68.9584 61.039 68.4722 60.4167 68.125C56.6667 66.25 52.882 64.8445 49.0626 63.9084C45.2431 62.9722 41.389 62.5028 37.5001 62.5C33.6112 62.5 29.757 62.9695 25.9376 63.9084C22.1181 64.8472 18.3334 66.2528 14.5834 68.125C13.9584 68.4722 13.4542 68.9584 13.0709 69.5834C12.6876 70.2084 12.4973 70.9028 12.5001 71.6667V75ZM37.5001 41.6667C39.7917 41.6667 41.7542 40.85 43.3876 39.2167C45.0209 37.5834 45.8362 35.6222 45.8334 33.3334C45.8334 31.0417 45.0167 29.0792 43.3834 27.4459C41.7501 25.8125 39.789 24.9972 37.5001 25C35.2084 25 33.2459 25.8167 31.6126 27.45C29.9792 29.0834 29.164 31.0445 29.1667 33.3334C29.1667 35.625 29.9834 37.5875 31.6167 39.2209C33.2501 40.8542 35.2112 41.6695 37.5001 41.6667Z" fill="#CCCCCC"/>
</svg>
