<svg width="100" height="100" viewBox="0 0 100 100" fill="none" xmlns="http://www.w3.org/2000/svg">
<path d="M42.2031 37.5V65.5957C42.2356 67.6502 43.0745 69.6095 44.5388 71.0509C46.0032 72.4923 47.9755 73.3002 50.0303 73.3002C52.085 73.3002 54.0574 72.4923 55.5217 71.0509C56.986 69.6095 57.825 67.6502 57.8574 65.5957L57.8828 28.7695C57.9041 27.0135 57.5766 25.2707 56.9194 23.6423C56.2621 22.0138 55.2882 20.5319 54.054 19.2826C52.8198 18.0334 51.3499 17.0415 49.7294 16.3645C48.109 15.6876 46.3704 15.339 44.6143 15.339C42.8581 15.339 41.1195 15.6876 39.4991 16.3645C37.8787 17.0415 36.4087 18.0334 35.1745 19.2826C33.9403 20.5319 32.9664 22.0138 32.3091 23.6423C31.6519 25.2707 31.3244 27.0135 31.3457 28.7695V65.8437C31.3099 68.3159 31.7659 70.7705 32.6873 73.0649C33.6086 75.3592 34.9768 77.4476 36.7124 79.2085C38.4479 80.9693 40.5163 82.3676 42.7971 83.322C45.0778 84.2765 47.5256 84.768 49.998 84.768C52.4705 84.768 54.9182 84.2765 57.199 83.322C59.4798 82.3676 61.5481 80.9693 63.2837 79.2085C65.0193 77.4476 66.3875 75.3592 67.3088 73.0649C68.2301 70.7705 68.6862 68.3159 68.6504 65.8437V31.1992" stroke="#DEDEE5" stroke-width="6.25" stroke-miterlimit="10" stroke-linecap="round"/>
</svg>
