<svg width="100" height="100" viewBox="0 0 100 100" fill="none" xmlns="http://www.w3.org/2000/svg">
<g clip-path="url(#clip0_321_8)">
<rect width="100" height="100" fill="#19C37D"/>
<path d="M74.25 61.6475C71.1599 58.2903 67.41 55.611 63.2364 53.7785C59.0629 51.946 54.5561 51 50 51C45.4439 51 40.9371 51.946 36.7636 53.7785C32.59 55.611 28.8401 58.2903 25.75 61.6475C25.2729 62.1765 25.006 62.8627 25 63.5759V75.146C25.0101 75.9065 25.3185 76.6323 25.8584 77.1665C26.3982 77.7006 27.1262 78.0001 27.8846 78H72.1154C72.8804 78 73.6141 77.6953 74.1551 77.1528C74.6961 76.6103 75 75.8746 75 75.1075V63.5373C74.9847 62.8375 74.7184 62.1666 74.25 61.6475Z" fill="white"/>
<path d="M50 48C57.1797 48 63 41.9558 63 34.5C63 27.0442 57.1797 21 50 21C42.8203 21 37 27.0442 37 34.5C37 41.9558 42.8203 48 50 48Z" fill="white"/>
</g>
<defs>
<clipPath id="clip0_321_8">
<rect width="100" height="100" fill="white"/>
</clipPath>
</defs>
</svg>
