<svg width="100" height="100" viewBox="0 0 100 100" fill="none" xmlns="http://www.w3.org/2000/svg">
<path d="M97.4414 27.0742C96.6702 26.682 95.8054 26.5108 94.9429 26.5798C94.0804 26.6487 93.2538 26.9551 92.5547 27.4648L82.8125 34.543V28.125C82.8125 26.053 81.9894 24.0659 80.5243 22.6007C79.0591 21.1356 77.072 20.3125 75 20.3125H12.5C10.428 20.3125 8.44086 21.1356 6.97573 22.6007C5.5106 24.0659 4.6875 26.053 4.6875 28.125V71.875C4.6875 73.947 5.5106 75.9341 6.97573 77.3993C8.44086 78.8644 10.428 79.6875 12.5 79.6875H75C77.072 79.6875 79.0591 78.8644 80.5243 77.3993C81.9894 75.9341 82.8125 73.947 82.8125 71.875V65.457L92.5547 72.543C93.2541 73.0519 94.0807 73.3573 94.943 73.4255C95.8053 73.4937 96.6696 73.3219 97.4403 72.9293C98.211 72.5367 98.8581 71.9384 99.3098 71.2008C99.7616 70.4632 100 69.615 100 68.75V31.25C99.9999 30.3857 99.7609 29.5383 99.3094 28.8014C98.8579 28.0645 98.2114 27.4667 97.4414 27.0742ZM73.4375 70.3125H14.0625V29.6875H73.4375V70.3125ZM90.625 59.543L82.8125 53.8633V46.1367L90.625 40.457V59.543Z" fill="#CCCCCC"/>
</svg>
