<svg width="86" height="79" viewBox="0 0 86 79" fill="none" xmlns="http://www.w3.org/2000/svg">
<path d="M77.3751 0.1875H8.62507C6.55306 0.1875 4.56592 1.0106 3.1008 2.47573C1.63567 3.94086 0.812568 5.928 0.812568 8V70.5C0.806328 71.9878 1.22891 73.4459 2.02974 74.6998C2.83057 75.9537 3.97573 76.9503 5.32819 77.5703C6.36639 78.0564 7.49826 78.3097 8.6446 78.3125C10.4791 78.3078 12.2528 77.6547 13.6524 76.4687L13.7266 76.4062L25.8126 65.8125H77.3751C79.4471 65.8125 81.4342 64.9894 82.8993 63.5243C84.3645 62.0591 85.1876 60.072 85.1876 58V8C85.1876 5.928 84.3645 3.94086 82.8993 2.47573C81.4342 1.0106 79.4471 0.1875 77.3751 0.1875ZM75.8126 56.4375H25.2266C23.3874 56.4374 21.6072 57.0861 20.1993 58.2695L20.1251 58.332L10.1876 67.0391V9.5625H75.8126V56.4375Z" fill="#DEDEE5"/>
</svg>
