<svg width="100" height="100" viewBox="0 0 100 100" fill="none" xmlns="http://www.w3.org/2000/svg">
<path d="M20.8333 87.5C18.5417 87.5 16.5792 86.6833 14.9458 85.05C13.3125 83.4167 12.4972 81.4556 12.5 79.1667V20.8333C12.5 18.5417 13.3167 16.5792 14.95 14.9458C16.5833 13.3125 18.5445 12.4972 20.8333 12.5H79.1667C81.4583 12.5 83.4208 13.3167 85.0542 14.95C86.6875 16.5833 87.5028 18.5445 87.5 20.8333V79.1667C87.5 81.4583 86.6833 83.4208 85.05 85.0542C83.4167 86.6875 81.4556 87.5028 79.1667 87.5H20.8333ZM20.8333 79.1667H79.1667V20.8333H20.8333V79.1667ZM25 70.8333H75L59.375 50L46.875 66.6667L37.5 54.1667L25 70.8333Z" fill="#CCCCCC"/>
</svg>
