<svg width="100" height="100" viewBox="0 0 100 100" fill="none" xmlns="http://www.w3.org/2000/svg">
<path d="M49.9999 8.33331C53.3151 8.33331 56.4945 9.65027 58.8388 11.9945C61.183 14.3387 62.4999 17.5181 62.4999 20.8333V45.8333C62.4999 49.1485 61.183 52.3279 58.8388 54.6721C56.4945 57.0164 53.3151 58.3333 49.9999 58.3333C46.6847 58.3333 43.5053 57.0164 41.1611 54.6721C38.8169 52.3279 37.4999 49.1485 37.4999 45.8333V20.8333C37.4999 17.5181 38.8169 14.3387 41.1611 11.9945C43.5053 9.65027 46.6847 8.33331 49.9999 8.33331ZM79.1666 45.8333C79.1666 60.5416 68.2916 72.6666 54.1666 74.7083V87.5H45.8333V74.7083C31.7083 72.6666 20.8333 60.5416 20.8333 45.8333H29.1666C29.1666 51.3587 31.3615 56.6577 35.2685 60.5647C39.1755 64.4717 44.4746 66.6666 49.9999 66.6666C55.5253 66.6666 60.8243 64.4717 64.7313 60.5647C68.6383 56.6577 70.8333 51.3587 70.8333 45.8333H79.1666Z" fill="#DEDEE5"/>
</svg>
