<svg width="100" height="100" viewBox="0 0 100 100" fill="none" xmlns="http://www.w3.org/2000/svg">
<path d="M17.1875 40.625C18.6238 40.625 20.0461 40.9079 21.3731 41.4576C22.7001 42.0072 23.9058 42.8129 24.9215 43.8285C25.9371 44.8442 26.7428 46.0499 27.2924 47.3769C27.8421 48.7039 28.125 50.1262 28.125 51.5625C28.125 52.9988 27.8421 54.4211 27.2924 55.7481C26.7428 57.0751 25.9371 58.2808 24.9215 59.2965C23.9058 60.3121 22.7001 61.1178 21.3731 61.6674C20.0461 62.2171 18.6238 62.5 17.1875 62.5C14.2867 62.5 11.5047 61.3477 9.45352 59.2965C7.40234 57.2453 6.25 54.4633 6.25 51.5625C6.25 48.6617 7.40234 45.8797 9.45352 43.8285C11.5047 41.7773 14.2867 40.625 17.1875 40.625ZM50 40.625C51.4363 40.625 52.8586 40.9079 54.1856 41.4576C55.5126 42.0072 56.7183 42.8129 57.734 43.8285C58.7496 44.8442 59.5553 46.0499 60.1049 47.3769C60.6546 48.7039 60.9375 50.1262 60.9375 51.5625C60.9375 52.9988 60.6546 54.4211 60.1049 55.7481C59.5553 57.0751 58.7496 58.2808 57.734 59.2965C56.7183 60.3121 55.5126 61.1178 54.1856 61.6674C52.8586 62.2171 51.4363 62.5 50 62.5C47.0992 62.5 44.3172 61.3477 42.266 59.2965C40.2148 57.2453 39.0625 54.4633 39.0625 51.5625C39.0625 48.6617 40.2148 45.8797 42.266 43.8285C44.3172 41.7773 47.0992 40.625 50 40.625ZM82.8125 40.625C84.2488 40.625 85.6711 40.9079 86.9981 41.4576C88.3251 42.0072 89.5308 42.8129 90.5465 43.8285C91.5621 44.8442 92.3678 46.0499 92.9174 47.3769C93.4671 48.7039 93.75 50.1262 93.75 51.5625C93.75 52.9988 93.4671 54.4211 92.9174 55.7481C92.3678 57.0751 91.5621 58.2808 90.5465 59.2965C89.5308 60.3121 88.3251 61.1178 86.9981 61.6674C85.6711 62.2171 84.2488 62.5 82.8125 62.5C79.9117 62.5 77.1297 61.3477 75.0785 59.2965C73.0273 57.2453 71.875 54.4633 71.875 51.5625C71.875 48.6617 73.0273 45.8797 75.0785 43.8285C77.1297 41.7773 79.9117 40.625 82.8125 40.625Z" fill="#CCCCCC"/>
</svg>
