<svg width="60" height="60" viewBox="0 0 60 60" fill="none" xmlns="http://www.w3.org/2000/svg">
<path d="M54.9999 34.1583H34.1666V54.9917C34.1666 56.0967 33.7276 57.1566 32.9462 57.938C32.1648 58.7194 31.105 59.1583 29.9999 59.1583C28.8948 59.1583 27.835 58.7194 27.0536 57.938C26.2722 57.1566 25.8333 56.0967 25.8333 54.9917V34.1583H4.99992C3.89485 34.1583 2.83504 33.7194 2.05364 32.938C1.27224 32.1566 0.833252 31.0967 0.833252 29.9917C0.833252 28.8866 1.27224 27.8268 2.05364 27.0454C2.83504 26.264 3.89485 25.825 4.99992 25.825H25.8333V4.99168C25.8333 3.88661 26.2722 2.8268 27.0536 2.0454C27.835 1.264 28.8948 0.825012 29.9999 0.825012C31.105 0.825012 32.1648 1.264 32.9462 2.0454C33.7276 2.8268 34.1666 3.88661 34.1666 4.99168V25.825H54.9999C56.105 25.825 57.1648 26.264 57.9462 27.0454C58.7276 27.8268 59.1666 28.8866 59.1666 29.9917C59.1666 31.0967 58.7276 32.1566 57.9462 32.938C57.1648 33.7194 56.105 34.1583 54.9999 34.1583Z" fill="#DEDEE5"/>
</svg>
