<svg width="100" height="100" viewBox="0 0 100 100" fill="none" xmlns="http://www.w3.org/2000/svg">
<path d="M14.1666 85L86.8749 53.8334C87.6265 53.5132 88.2674 52.9791 88.7179 52.2975C89.1684 51.616 89.4086 50.817 89.4086 50C89.4086 49.183 89.1684 48.3841 88.7179 47.7025C88.2674 47.021 87.6265 46.4869 86.8749 46.1667L14.1666 15C13.537 14.7254 12.849 14.6119 12.1645 14.6696C11.4801 14.7274 10.8208 14.9546 10.2462 15.3308C9.6715 15.707 9.19954 16.2204 8.87285 16.8246C8.54617 17.4288 8.37505 18.1048 8.37492 18.7917L8.33325 38C8.33325 40.0834 9.87492 41.875 11.9583 42.125L70.8332 50L11.9583 57.8334C9.87492 58.125 8.33325 59.9167 8.33325 62L8.37492 81.2084C8.37492 84.1667 11.4166 86.2084 14.1666 85Z" fill="#DEDEE5"/>
</svg>
